<svg width="91" height="91" viewBox="0 0 91 91" fill="none" xmlns="http://www.w3.org/2000/svg">
<path fill-rule="evenodd" clip-rule="evenodd" d="M45.5 0C41.5757 0 35.018 1.50719 28.847 3.185C22.5339 4.89125 16.1696 6.91031 12.4272 8.13312C10.8625 8.64984 9.47535 9.59746 8.42502 10.8671C7.37469 12.1368 6.70381 13.677 6.48947 15.3107C3.09972 40.7737 10.9655 59.6448 20.5092 72.1289C24.5563 77.4692 29.3818 82.1721 34.8246 86.0803C37.02 87.633 39.0561 88.8217 40.7851 89.635C42.3776 90.3857 44.0895 91 45.5 91C46.9105 91 48.6168 90.3857 50.215 89.635C52.2993 88.6219 54.2934 87.4327 56.1755 86.0803C61.6184 82.1722 66.4439 77.4693 70.4909 72.1289C80.0345 59.6448 87.9003 40.7737 84.5106 15.3107C84.2966 13.6762 83.6259 12.1351 82.5756 10.8644C81.5253 9.59382 80.138 8.64517 78.5728 8.12744C73.1402 6.34619 67.6653 4.69633 62.153 3.17931C55.9821 1.51287 49.4244 0 45.5 0ZM45.5 28.4375C47.5148 28.4345 49.4655 29.1446 51.0069 30.4421C52.5482 31.7396 53.5806 33.5407 53.9212 35.5265C54.2618 37.5122 53.8886 39.5544 52.8678 41.2914C51.847 43.0283 50.2444 44.348 48.3438 45.0166L50.5335 56.3347C50.6131 56.7463 50.6008 57.1705 50.4973 57.5769C50.3938 57.9832 50.2018 58.3616 49.9349 58.685C49.668 59.0084 49.3329 59.2688 48.9536 59.4475C48.5743 59.6262 48.1602 59.7188 47.7409 59.7188H43.2592C42.8403 59.718 42.4269 59.6248 42.0483 59.4457C41.6697 59.2666 41.3353 59.0061 41.069 58.6828C40.8028 58.3595 40.6113 57.9814 40.5081 57.5755C40.4049 57.1696 40.3927 56.7459 40.4723 56.3347L42.6563 45.0166C40.7557 44.348 39.1531 43.0283 38.1323 41.2914C37.1114 39.5544 36.7383 37.5122 37.0789 35.5265C37.4195 33.5407 38.4519 31.7396 39.9932 30.4421C41.5345 29.1446 43.4853 28.4345 45.5 28.4375Z" fill="black"/>
</svg>
